<mxfile host="app.diagrams.net" modified="2024-06-21T18:56:41.546Z" agent="Mozilla/5.0 (Windows NT 10.0; Win64; x64) AppleWebKit/537.36 (KHTML, like Gecko) Chrome/126.0.0.0 Safari/537.36" version="24.6.1" etag="04jYPTdA87sTsl9gVA5o" type="github">
  <diagram name="PÃ¡gina-1" id="0y2Y86XSNIbRXqBCz-BZ">
    <mxGraphModel>
      <root>
        <mxCell id="0" />
        <mxCell id="1" parent="0" />
      </root>
    </mxGraphModel>
  </diagram>
</mxfile>
